<svg xmlns="http://www.w3.org/2000/svg" viewBox="0 0 64 64">
  <defs>
    <linearGradient id="a" x1="0%" y1="0%" x2="100%" y2="100%">
      <stop offset="0%" stop-color="#3a6bb8" />
      <stop offset="100%" stop-color="#6ad1c9" />
    </linearGradient>
  </defs>
  <rect width="64" height="64" rx="12" fill="url(#a)" />
  <path
    d="M18 18h12c5.523 0 10 4.477 10 10 0 3.77-2.086 7.05-5.17 8.76l4.62 8.27a2 2 0 0 1-3.5 1.94l-5.08-9.08H24v9.4a2 2 0 0 1-4 0V20a2 2 0 0 1 2-2Zm4 4v11.83h8c3.229 0 6-2.65 6-5.83s-2.771-6-6-6Z"
    fill="#fff"
  />
</svg>
